<svg xmlns="http://www.w3.org/2000/svg" version="1.1" xmlns:xlink="http://www.w3.org/1999/xlink" xmlns:svgjs="http://svgjs.dev/svgjs" width="100%" height="100%" viewBox="0 0 1000 600"><rect width="1000" height="600" x="0" y="0" fill="#9b111e"/><g><circle r="166.66666666666666" cx="315.9305979410807" cy="338.1528374747919" fill="#0044ff" transform="matrix(0.8374423415018719,0,0,0.8374423415018719,0,16.81644920540198)"/><path d="M360.8452743167258 413.1528378324704L271.0159286690088 413.1528378324704L271.0159286690088 398.9708055356478L307.88332798004365 398.9708055356478L307.88332798004365 321.41097745592884L271.0159286690088 321.41097745592884L271.0159286690088 307.22894515910616L324.83115080778197 307.22894515910616L324.83115080778197 398.9708055356478L360.8452743167258 398.9708055356478L360.8452743167258 413.1528378324704ZM302.14578379356976 277.15832896127887L302.14578379356976 277.15832896127887Q302.14578379356976 271.42078477480493 305.97081325121906 267.3015222819519Q309.7958427088683 263.1528364855785 315.70992671646445 263.1528364855785L315.70992671646445 263.1528364855785Q321.85939715222366 263.1528364855785 325.97865964507673 267.3015222819519Q330.1273454414502 271.42078477480493 330.1273454414502 277.15832896127887L330.1273454414502 277.15832896127887Q330.1273454414502 282.6604867195897 325.97865964507673 286.4560928737186Q321.85939715222366 290.2811223313679 315.70992671646445 290.2811223313679L315.70992671646445 290.2811223313679Q309.7958427088683 290.2811223313679 305.97081325121906 286.4560928737186Q302.14578379356976 282.6604867195897 302.14578379356976 277.15832896127887Z " fill="#ffd700" transform="matrix(0.8374423415018719,0,0,0.8374423415018719,0,16.81644920540198)"/><path d="M645.7881867618715 341.51803225179015L645.7881867618715 321.5024263750431Q640.9305982011406 319.83445921864757 635.3414450981307 318.6639559510015Q629.7815545768121 317.52271526504666 624.2801892188759 317.52271526504666L624.2801892188759 317.52271526504666Q603.6500691266147 317.52271526504666 593.5252158614765 327.2086298048175Q583.4296251780295 336.8945443445884 583.4296251780295 357.9636031622168L583.4296251780295 357.9636031622168Q583.4296251780295 367.2398415583116 586.3558833471445 374.4969618177169Q589.3114040979508 381.7833446588134 594.783506874196 386.81650870969133Q600.2848722321323 391.87893534226043 607.9516686352138 394.62961802122857Q615.6477276199864 397.3510381185056 624.9239660160811 397.3510381185056L624.9239660160811 397.3510381185056Q634.81471862769 397.3510381185056 644.2080073505495 393.98584122402326Q653.5720334917175 390.6206443295409 659.8927511370061 385.14854155329573L659.8927511370061 385.14854155329573L667.2669217231761 397.3510381185056Q664.3114009723698 399.89688272563563 659.8927511370061 402.61830282291265Q655.4741013016423 405.36898550188084 649.6801101267945 407.7977797822463Q643.8861189519467 410.22657406261186 636.8338367643794 411.6897031471694Q629.7815545768121 413.1528322317269 621.5587691215987 413.1528322317269L621.5587691215987 413.1528322317269Q607.8638808901403 413.1528322317269 597.4171392263995 409.26090886680385Q586.99966014435 405.36898550188084 580.035165701856 398.1118652424755Q573.0999338410534 390.825482401379 569.5006362930419 380.6128413911674Q565.9306013267214 370.4002003809558 565.9306013267214 357.9636031622168L565.9306013267214 357.9636031622168Q565.9306013267214 344.67839107443444 569.6176866198064 334.3779623191494Q573.3047719128914 324.0482709821732 580.2692663553853 317.0837765396794Q587.204498216188 310.1485446788767 597.124513409488 306.4614593857917Q607.015266021097 302.77437409270675 619.2470251679979 302.77437409270675L619.2470251679979 302.77437409270675Q634.81471862769 302.77437409270675 644.6176834942255 305.49579418998377Q654.420648360761 308.2464768689519 661.1510421497256 311.6116737634342L661.1510421497256 311.6116737634342L660.9462040778876 312.25545056063953L660.9462040778876 341.51803225179015L645.7881867618715 341.51803225179015ZM691.7011774352869 357.9636031622168L691.7011774352869 357.9636031622168Q691.7011774352869 332.4758945092246 704.9863895230693 317.6105030101201Q718.2716016108517 302.77437409270675 742.9106953948004 302.77437409270675L742.9106953948004 302.77437409270675Q756.1959074825829 302.77437409270675 765.7647716955892 307.07597360130586Q775.3628984902865 311.4068356915962 781.6836161355751 318.78100627776615Q788.0043337808636 326.1551768639361 791.0476422767433 336.2507675473831Q794.1202133543142 346.37562081252116 794.1202133543142 357.9636031622168L794.1202133543142 357.9636031622168Q794.1202133543142 370.6050384527939 790.7257538781406 380.81767946300545Q787.3605569836583 391.03032047321705 780.8350012665318 398.199652987549Q774.3094455494052 405.36898550188084 764.7113187547077 409.26090886680385Q755.1424545417015 413.1528322317269 742.9106953948004 413.1528322317269L742.9106953948004 413.1528322317269Q729.8595839605473 413.1528322317269 720.1444068390853 408.8512327231278Q710.4584922993145 404.52037063283746 704.1377746540259 397.1462000466675Q697.8170570087374 389.77202946049755 694.7737485128577 379.6764387770506Q691.7011774352869 369.5515855119125 691.7011774352869 357.9636031622168ZM709.200201286595 357.9636031622168L709.200201286595 357.9636031622168Q709.200201286595 365.3377737483868 710.9852187697551 372.71194433455673Q712.7702362529153 380.0861149207267 716.7792099446029 385.9971564223391Q720.7881836362907 391.87893534226043 727.2259516083437 395.47823289027195Q733.6344569987058 399.0482678565923 742.9106953948004 399.0482678565923L742.9106953948004 399.0482678565923Q759.7659424489033 399.0482678565923 768.3106163027193 388.63078877454274Q776.826027574844 378.1840471108019 776.826027574844 357.9636031622168L776.826027574844 357.9636031622168Q776.826027574844 350.3845945042088 775.0410100916839 343.0982116631123Q773.2559926085237 335.8410914037069 769.1299685900715 329.93004990209454Q765.0332071533104 324.0482709821732 758.5954391812572 320.4489734341617Q752.1869337908953 316.87893846784135 742.9106953948004 316.87893846784135L742.9106953948004 316.87893846784135Q726.0554483406977 316.87893846784135 717.6278248136463 327.2086298048175Q709.200201286595 337.5383211417937 709.200201286595 357.9636031622168ZM879.6547396375473 277.2574028580234L879.6547396375473 263.1528384828888L913.7749098894291 263.1528384828888L913.7749098894291 374.61401214448153Q913.7749098894291 376.51607995440634 913.9797479612672 379.3545503784479Q914.2138486147963 382.19302080248957 914.5064744317078 385.3533796251338Q914.8283628303104 388.51373844777805 915.2673015556777 391.5570469436578Q915.6769776993539 394.62961802122857 916.0866538430299 396.9413619748295L916.0866538430299 396.9413619748295L930.2204807998556 396.9413619748295L930.2204807998556 410.63625020628797L902.1869275397333 410.63625020628797L900.0800216579706 394.4247799493905L899.2314067889272 394.4247799493905Q894.6079188817254 402.4134647510746 885.4487308123952 407.7977797822463Q876.289542743065 413.1528322317269 864.2626216680022 413.1528322317269L864.2626216680022 413.1528322317269Q840.4721427530967 413.1528322317269 829.1767862203126 399.77983239887106Q817.9106922692196 386.4068325660152 817.9106922692196 358.1684412340549L817.9106922692196 358.1684412340549Q817.9106922692196 344.91249172796364 821.7148278890692 334.6705881360609Q825.4897009272275 324.45794712584933 832.571245696486 317.6105030101201Q839.6235278840533 310.76305889439084 849.5142804956623 307.1930239280705Q859.4342956889624 303.59372638005897 871.6367922541721 303.59372638005897L871.6367922541721 303.59372638005897Q876.0554420895359 303.59372638005897 879.5376893107829 303.82782703358816Q883.0199365320298 304.0326651054262 885.9754572828359 304.4423412491023Q888.9309780336422 304.8812799744696 891.5646103858456 305.61284451674834Q894.1982427380493 306.3444090590271 897.3586015606935 307.1930239280705L897.3586015606935 307.1930239280705L897.3586015606935 277.2574028580234L879.6547396375473 277.2574028580234ZM867.0133043469704 399.0482678565923L867.0133043469704 399.0482678565923Q879.8595777093855 399.0482678565923 887.2337482955555 392.4056618127011Q894.6079188817254 385.7630557688099 897.3586015606935 372.50710626271865L897.3586015606935 372.50710626271865L897.3586015606935 323.609332256806Q892.7058510718006 320.4489734341617 886.9118598969527 318.9858443496042Q881.1178687221048 317.52271526504666 871.6367922541721 317.52271526504666L871.6367922541721 317.52271526504666Q854.7815452000694 317.52271526504666 845.0956306602985 327.296417549891Q835.4097161205276 337.0993824164264 835.4097161205276 358.1684412340549L835.4097161205276 358.1684412340549Q835.4097161205276 366.8009028329443 836.9898955318498 374.2921237458789Q838.5700749431719 381.7833446588134 842.2571602362569 387.2554474350586Q845.9442455293419 392.72755021130376 852.0601251027923 395.887909033948Q858.1467420945518 399.0482678565923 867.0133043469704 399.0482678565923ZM1037.4678426979228 385.3533796251338L1043.9933984150493 397.3510381185056Q1040.1892627951997 400.7454975946791 1035.0390484175573 403.6717557637941Q1029.8595714582239 406.6272765146003 1023.7729544664643 408.73418239636317Q1017.6570748930138 410.84108827812605 1011.0144688491226 412.01159154577203Q1004.3718628052314 413.1528322317269 997.6414690162668 413.1528322317269L997.6414690162668 413.1528322317269Q985.0000337256896 413.1528322317269 975.3141191859189 409.26090886680385Q965.5989420644569 405.36898550188084 959.0733863473303 398.1118652424755Q952.5478306302036 390.825482401379 949.1826337357212 380.72989171793205Q945.817436841239 370.6050384527939 945.817436841239 357.9636031622168L945.817436841239 357.9636031622168Q945.817436841239 344.67839107443444 949.504522134324 334.3779623191494Q953.1916074274089 324.0482709821732 960.1268392882117 317.0837765396794Q967.0913337307055 310.1485446788767 976.9820863423143 306.4614593857917Q986.9021015356144 302.77437409270675 999.1045981008243 302.77437409270675L999.1045981008243 302.77437409270675Q1007.9711603532429 302.77437409270675 1016.6036219521325 305.0861180463076Q1025.2360835510217 307.3978619999085 1031.8786895949129 313.8356299719617Q1038.521295638804 320.2441353623237 1042.0913306051245 331.51022931341663Q1045.661365571445 342.8055858462008 1044.6079126305635 360.71428584118496L1044.6079126305635 360.71428584118496L963.0823600390179 360.71428584118496Q963.0823600390179 379.6764387770506 973.2950010492294 389.0404649182188Q983.5076420594411 398.404491059387 1000.5969897670731 398.404491059387L1000.5969897670731 398.404491059387Q1006.2739306151562 398.404491059387 1011.863083718166 397.05841230159405Q1017.4522368211757 395.68307096211 1022.4854008720537 393.7810031521852Q1027.5478275046225 391.87893534226043 1031.4397508695456 389.5671913886595Q1035.3609368161601 387.2554474350586 1037.4678426979228 385.3533796251338L1037.4678426979228 385.3533796251338ZM999.5435368261916 316.67410039600327L999.5435368261916 316.67410039600327Q992.5790423836977 316.67410039600327 986.3753750651737 318.1372294805608Q980.1424451649586 319.6296211468095 975.4019069309924 323.08260578636526Q970.6613686970259 326.5648530076122 967.6180602011462 332.154006110622Q964.5454891235753 337.7431592136317 963.7261368362232 345.96594466884505L963.7261368362232 345.96594466884505L1029.2450572427097 345.96594466884505Q1028.1916043018282 332.03695578385737 1020.2907072452173 324.3701593807759Q1012.3898101886067 316.67410039600327 999.5435368261916 316.67410039600327Z " fill="#ffd700" transform="matrix(0.8374423415018719,0,0,0.8374423415018719,0,16.81644920540198)"/></g></svg>